<?xml version="1.0" encoding="UTF-8" standalone="no" ?>
<!DOCTYPE svg PUBLIC "-//W3C//DTD SVG 1.1//EN" "http://www.w3.org/Graphics/SVG/1.1/DTD/svg11.dtd">
<svg xmlns="http://www.w3.org/2000/svg" xmlns:xlink="http://www.w3.org/1999/xlink" version="1.1" width="1080" height="1080" viewBox="0 0 1080 1080" xml:space="preserve">
<desc>Created with Fabric.js 5.2.4</desc>
<defs>
</defs>
<g transform="matrix(1 0 0 1 540 540)" id="16f4d018-79f3-45b0-a898-73af11329aef"  >
</g>
<g transform="matrix(1 0 0 1 540 540)" id="d0f334f2-6c91-4593-accb-f0add2e64603"  >
<rect style="stroke: none; stroke-width: 1; stroke-dasharray: none; stroke-linecap: butt; stroke-dashoffset: 0; stroke-linejoin: miter; stroke-miterlimit: 4; fill: rgb(247,247,242); fill-rule: nonzero; opacity: 1;" vector-effect="non-scaling-stroke"  x="-540" y="-540" rx="0" ry="0" width="1080" height="1080" />
</g>
<g transform="matrix(1.77 0 0 1.77 540 717.3)"  >
<g style="" vector-effect="non-scaling-stroke"   >
		<g transform="matrix(0.13 0 0 -0.13 -2.62 -76.27)"  >
<path style="stroke: none; stroke-width: 1; stroke-dasharray: none; stroke-linecap: butt; stroke-dashoffset: 0; stroke-linejoin: miter; stroke-miterlimit: 4; fill: rgb(72,72,58); fill-rule: nonzero; opacity: 1;" vector-effect="non-scaling-stroke"  transform=" translate(-2660.22, -3133.22)" d="M 2510 5224 C 2257 5194 2013 5115 1760 4984 C 1396 4794 1160 4523 1073 4195 C 1049 4105 1047 4077 1046 3915 C 1046 3730 1054 3662 1098 3504 C 1130 3391 1189 3242 1242 3138 C 1291 3044 1293 3038 1287 2981 C 1279 2903 1295 2636 1315 2536 C 1354 2336 1406 2178 1479 2040 C 1697 1624 1993 1332 2399 1128 C 2621 1017 2667 1014 2850 1098 C 3320 1314 3701 1705 3879 2155 C 3975 2396 4010 2571 4017 2845 L 4022 3045 L 4076 3152 C 4280 3555 4328 3947 4214 4282 C 4133 4520 3955 4737 3705 4899 C 3516 5023 3157 5167 2945 5205 C 2858 5221 2582 5233 2510 5224 z M 2585 4978 C 2605 4886 2610 4858 2610 4805 C 2610 4652 2553 4476 2433 4267 C 2311 4054 2089 3802 1807 3556 C 1656 3425 1455 3270 1436 3270 C 1422 3270 1363 3392 1354 3439 C 1349 3463 1359 3474 1462 3557 C 1783 3814 2097 4147 2338 4488 C 2425 4610 2436 4636 2420 4683 C 2405 4730 2378 4752 2328 4757 C 2274 4763 2248 4744 2183 4652 C 1950 4321 1688 4033 1411 3801 C 1266 3680 1275 3678 1265 3847 C 1243 4199 1398 4493 1715 4704 C 1942 4855 2328 4995 2532 4999 C 2574 5000 2580 4997 2585 4978 z M 2910 4985 C 3031 4968 3343 4852 3494 4767 C 3811 4589 3998 4343 4041 4048 C 4054 3957 4048 3734 4032 3718 C 4017 3703 3542 4182 3409 4345 C 3350 4417 3264 4529 3216 4595 C 3108 4744 3091 4760 3038 4760 C 3006 4760 2991 4753 2964 4726 C 2916 4678 2917 4631 2967 4559 C 3190 4230 3596 3779 3893 3530 C 3955 3478 3969 3462 3964 3445 C 3953 3411 3888 3270 3882 3270 C 3860 3270 3596 3493 3422 3657 C 3143 3921 2957 4158 2829 4411 L 2787 4495 L 2806 4585 C 2826 4680 2832 4878 2817 4958 L 2809 5002 L 2837 4996 C 2853 4993 2885 4988 2910 4985 z M 2720 4148 C 2769 4064 2839 3964 2916 3868 C 2946 3831 2970 3799 2970 3797 C 2970 3785 2840 3737 2783 3727 C 2700 3714 2582 3729 2484 3766 C 2371 3808 2374 3805 2412 3848 C 2464 3906 2562 4047 2616 4141 C 2643 4189 2668 4226 2671 4224 C 2675 4222 2697 4188 2720 4148 z M 2310 3600 C 2570 3469 2852 3467 3064 3595 L 3122 3630 L 3270 3491 C 3426 3344 3610 3188 3722 3106 C 3804 3046 3805 3042 3797 2841 C 3789 2653 3765 2508 3713 2346 L 3698 2298 L 3646 2348 C 3438 2549 3171 2690 2912 2734 C 2594 2789 2305 2743 1955 2580 C 1866 2539 1625 2397 1614 2379 C 1590 2339 1558 2430 1526 2632 C 1516 2690 1510 2792 1510 2883 L 1510 3037 L 1642 3136 C 1801 3254 2013 3436 2130 3554 C 2176 3601 2218 3640 2223 3640 C 2227 3640 2266 3622 2310 3600 z" stroke-linecap="round" />
</g>
		<g transform="matrix(0.13 0 0 -0.13 -58.39 -59.23)"  >
<path style="stroke: none; stroke-width: 1; stroke-dasharray: none; stroke-linecap: butt; stroke-dashoffset: 0; stroke-linejoin: miter; stroke-miterlimit: 4; fill: rgb(72,72,58); fill-rule: nonzero; opacity: 1;" vector-effect="non-scaling-stroke"  transform=" translate(-2207.15, -3052.25)" d="M 2145 3265 C 2047 3239 1968 3116 1987 3018 C 2002 2937 2064 2863 2136 2840 C 2191 2822 2279 2833 2328 2864 C 2419 2921 2456 3049 2411 3144 C 2362 3244 2253 3294 2145 3265 z" stroke-linecap="round" />
</g>
		<g transform="matrix(0.13 0 0 -0.13 59.98 -59.22)"  >
<path style="stroke: none; stroke-width: 1; stroke-dasharray: none; stroke-linecap: butt; stroke-dashoffset: 0; stroke-linejoin: miter; stroke-miterlimit: 4; fill: rgb(72,72,58); fill-rule: nonzero; opacity: 1;" vector-effect="non-scaling-stroke"  transform=" translate(-3095, -3052.1)" d="M 3047 3269 C 3002 3258 2949 3224 2920 3187 C 2895 3155 2870 3087 2870 3050 C 2870 3005 2899 2937 2933 2901 C 3074 2753 3320 2849 3320 3051 C 3320 3194 3184 3302 3047 3269 z" stroke-linecap="round" />
</g>
		<g transform="matrix(0.13 0 0 -0.13 -7.4 267.7)"  >
<path style="stroke: none; stroke-width: 1; stroke-dasharray: none; stroke-linecap: butt; stroke-dashoffset: 0; stroke-linejoin: miter; stroke-miterlimit: 4; fill: rgb(72,72,58); fill-rule: nonzero; opacity: 1;" vector-effect="non-scaling-stroke"  transform=" translate(-2639.5, -591)" d="M 1470 1170 C 1308 1156 1125 1102 988 1027 C 892 974 761 859 681 757 C 546 585 450 326 424 71 L 417 0 L 528 0 L 639 0 L 645 38 C 667 175 674 212 691 271 C 765 529 903 717 1101 828 C 1203 886 1374 933 1532 946 L 1609 953 L 1722 882 C 1935 750 2067 685 2245 627 C 2345 594 2501 560 2554 560 C 2605 560 2604 560 2435 445 C 2297 352 1952 95 1885 36 L 1845 1 L 2024 0 L 2203 0 L 2249 33 C 2534 240 2690 345 2969 524 C 3086 599 3204 672 3231 686 C 3258 699 3366 762 3471 825 C 3650 932 3667 940 3714 940 C 3858 939 4032 896 4165 827 C 4415 697 4571 446 4621 91 L 4634 0 L 4748 0 L 4862 0 L 4855 63 C 4822 385 4704 660 4520 847 C 4321 1050 4066 1154 3720 1175 L 3605 1182 L 3395 1055 C 3279 985 3160 916 3130 900 C 2995 832 2781 780 2635 780 C 2414 781 2124 889 1820 1086 C 1667 1185 1662 1186 1470 1170 z" stroke-linecap="round" />
</g>
</g>
</g>
<g transform="matrix(NaN NaN NaN NaN 0 0)"  >
<g style=""   >
</g>
</g>
<g transform="matrix(NaN NaN NaN NaN 0 0)"  >
<g style=""   >
</g>
</g>
<g transform="matrix(NaN NaN NaN NaN 0 0)"  >
<g style=""   >
</g>
</g>
<g transform="matrix(3.24 0 0 2.18 241.87 1074.82)" id="e3e574c4-e48d-4ba6-a5d8-1e37a6b6d2d8"  >
<circle style="stroke: rgb(247,247,242); stroke-width: 0; stroke-dasharray: none; stroke-linecap: butt; stroke-dashoffset: 0; stroke-linejoin: miter; stroke-miterlimit: 4; fill: rgb(247,247,242); fill-rule: nonzero; opacity: 1;" vector-effect="non-scaling-stroke"  cx="0" cy="0" r="35" />
</g>
<g transform="matrix(3.24 0 0 2.18 810.13 1082.89)" id="e3e574c4-e48d-4ba6-a5d8-1e37a6b6d2d8"  >
<circle style="stroke: rgb(247,247,242); stroke-width: 0; stroke-dasharray: none; stroke-linecap: butt; stroke-dashoffset: 0; stroke-linejoin: miter; stroke-miterlimit: 4; fill: rgb(247,247,242); fill-rule: nonzero; opacity: 1;" vector-effect="non-scaling-stroke"  cx="0" cy="0" r="35" />
</g>
</svg>